<svg width="22" height="14" viewBox="0 0 22 14" fill="none" xmlns="http://www.w3.org/2000/svg">
<path d="M15.25 9.42969C15.25 8.84635 15.138 8.29948 14.9141 7.78906C14.6953 7.27344 14.3906 6.82031 14 6.42969C13.6094 6.03906 13.1589 5.73177 12.6484 5.50781C12.138 5.28385 11.5911 5.17188 11.0078 5.17188C10.4193 5.17188 9.86979 5.28385 9.35938 5.50781C8.84896 5.73177 8.39844 6.03906 8.00781 6.42969C7.61719 6.82031 7.3099 7.27344 7.08594 7.78906C6.86719 8.29948 6.75781 8.84635 6.75781 9.42969C6.75781 9.65365 6.77865 9.8776 6.82031 10.1016C6.86198 10.3203 6.92448 10.5312 7.00781 10.7344H15C15.0833 10.5312 15.1458 10.3203 15.1875 10.1016C15.2292 9.8776 15.25 9.65365 15.25 9.42969ZM2.78125 9.8125H4.50781C4.73177 9.8125 4.91927 9.73958 5.07031 9.59375C5.22135 9.44792 5.29688 9.27344 5.29688 9.07031C5.29167 8.86719 5.21354 8.69271 5.0625 8.54688C4.91667 8.40104 4.73177 8.32812 4.50781 8.32812H2.78125C2.55729 8.32812 2.36979 8.40104 2.21875 8.54688C2.06771 8.69271 1.99219 8.86719 1.99219 9.07031C1.99219 9.27344 2.06771 9.44792 2.21875 9.59375C2.36979 9.73958 2.55729 9.8125 2.78125 9.8125ZM5.88281 5.36719C6.03906 5.52344 6.22396 5.60417 6.4375 5.60938C6.65104 5.61458 6.82812 5.54688 6.96875 5.40625C7.10938 5.26562 7.17708 5.09115 7.17188 4.88281C7.17188 4.66927 7.09115 4.48177 6.92969 4.32031L5.71094 3.10156C5.54948 2.9401 5.36458 2.85938 5.15625 2.85938C4.95312 2.85938 4.77865 2.92969 4.63281 3.07031C4.48698 3.21615 4.41406 3.39323 4.41406 3.60156C4.41927 3.8099 4.5026 3.99479 4.66406 4.15625L5.88281 5.36719ZM15.0391 5.40625C15.1849 5.54688 15.362 5.61458 15.5703 5.60938C15.7839 5.60417 15.9688 5.52344 16.125 5.36719L17.3438 4.15625C17.5052 3.99479 17.5859 3.8099 17.5859 3.60156C17.5911 3.39323 17.5208 3.21615 17.375 3.07031C17.2344 2.92969 17.0599 2.85938 16.8516 2.85938C16.6432 2.85938 16.4583 2.9401 16.2969 3.10156L15.0781 4.32031C14.9167 4.48177 14.8333 4.66927 14.8281 4.88281C14.8229 5.09115 14.8932 5.26562 15.0391 5.40625ZM17.5 9.8125H19.2266C19.4557 9.8125 19.6432 9.73958 19.7891 9.59375C19.9401 9.44792 20.0156 9.27344 20.0156 9.07031C20.0156 8.86719 19.9401 8.69271 19.7891 8.54688C19.6432 8.40104 19.4557 8.32812 19.2266 8.32812H17.5C17.2812 8.32812 17.0938 8.40104 16.9375 8.54688C16.7865 8.69271 16.7109 8.86719 16.7109 9.07031C16.7161 9.27344 16.7943 9.44792 16.9453 9.59375C17.0964 9.73958 17.2812 9.8125 17.5 9.8125ZM11.0078 3.73438C11.2057 3.73438 11.3776 3.65885 11.5234 3.50781C11.6693 3.35156 11.7422 3.16406 11.7422 2.94531V1.21875C11.7422 0.989583 11.6693 0.802083 11.5234 0.65625C11.3776 0.505208 11.2057 0.429688 11.0078 0.429688C10.8047 0.429688 10.6302 0.505208 10.4844 0.65625C10.3385 0.802083 10.2656 0.989583 10.2656 1.21875V2.94531C10.2656 3.16406 10.3385 3.35156 10.4844 3.50781C10.6302 3.66406 10.8047 3.73958 11.0078 3.73438ZM1.84375 13.4375H20.1641C20.3984 13.4375 20.599 13.3568 20.7656 13.1953C20.9323 13.0286 21.0156 12.8333 21.0156 12.6094C21.0156 12.3854 20.9323 12.1927 20.7656 12.0312C20.599 11.8646 20.3984 11.7812 20.1641 11.7812H1.84375C1.60938 11.7812 1.40885 11.8646 1.24219 12.0312C1.07552 12.1927 0.992188 12.3854 0.992188 12.6094C0.992188 12.8281 1.07552 13.0208 1.24219 13.1875C1.40885 13.3542 1.60938 13.4375 1.84375 13.4375Z" fill="black"/>
</svg>
